inDegrees=yes
name=ik_tiny_file
DataType=double
version=3
OpenSimVersion=4.4-2022-07-23-0e9fedc
endheader
time	pelvis_tilt	pelvis_list	pelvis_rotation	pelvis_tx	pelvis_ty	pelvis_tz	hip_flexion_r	hip_adduction_r	hip_rotation_r	knee_angle_r	knee_angle_r_beta	ankle_angle_r	subtalar_angle_r	mtp_angle_r	hip_flexion_l	hip_adduction_l	hip_rotation_l	knee_angle_l	knee_angle_l_beta	ankle_angle_l	subtalar_angle_l	mtp_angle_l	lumbar_extension	lumbar_bending	lumbar_rotation	arm_flex_r	arm_add_r	arm_rot_r	elbow_flex_r	pro_sup_r	wrist_flex_r	wrist_dev_r	arm_flex_l	arm_add_l	arm_rot_l	elbow_flex_l	pro_sup_l	wrist_flex_l	wrist_dev_l
6.08	10.48895911781691	-4.584260651849208	0.435593529327024	0	0.9399999999999999	0	33.99171011357181	-9.78587350893946	0	55.89036165533611	0.9754708310160034	-4.086277390171875	0	0	33.99171011357181	-9.78587350893946	0	55.89036165533611	0.9754708310160034	-4.086277390171875	0	0	-9.366442462738711	4.61302595539915	5.210726790771328	19.71529736199194	-16.73829562340494	-2.751938711760111	40.68263644396511	45.29393365094167	0	4.989583585000653	2.01587074049282	1.678466801809784	1.36191811009652	0.09276546357650785	45.29393365094167	0	4.989583585000653
6.1	10.50793230893326	-4.593094170768061	0.4098226508859601	0	0.9399999999999999	0	34.08272310895512	-9.790212530009642	0	55.92315616588166	0.9760432032016031	-4.095800961522456	0	0	34.08272310895512	-9.790212530009642	0	55.92315616588166	0.9760432032016031	-4.095800961522456	0	0	-9.449839787146608	4.611362786077966	5.149557077054927	19.63813133552173	-16.88618508157637	-3.549865830802427	44.8214755003421	45.28888897360134	0	4.98989842693121	2.092752999704438	1.674384737676007	1.317807797978498	0.09345850470742288	45.28888897360134	0	4.98989842693121
6.12	10.47677124465352	-4.560567046641019	0.3426574498158285	0	0.9399999999999999	0	34.14852401729187	-9.793280223991337	0	55.94703101990147	0.9764598980126818	-4.102657881611497	0	0	34.14852401729187	-9.793280223991337	0	55.94703101990147	0.9764598980126818	-4.102657881611497	0	0	-9.52649448204625	4.591551020948043	5.072446934140786	20.23522320179825	-17.12087879915332	-3.829626684102077	48.24523012283868	45.28530299300607	0	4.990117448630059	2.231039757771088	1.727602856104754	1.261086290608377	0.0931596012639615	45.28530299300607	0	4.990117448630059
6.14	10.52074438119439	-4.572787617392267	0.2922121605986054	0	0.9399999999999999	0	34.20935592052329	-9.79616540352233	0	55.96880620419201	0.9768399466737803	-4.109020225275128	0	0	34.20935592052329	-9.79616540352233	0	55.96880620419201	0.9768399466737803	-4.109020225275128	0	0	-9.536265803569933	4.614009298806465	5.199705536389938	20.70569204712331	-17.68826876034524	-4.000037001977028	51.17442920965081	45.28194256948589	0	4.990325317920177	2.135825818061745	1.786503456378225	1.483980222574078	0.09220074294767827	45.28194256948589	0	4.990325317920177
6.16	10.53896404718322	-4.593610147539938	0.245141081561576	0	0.9399999999999999	0	34.26705831663931	-9.798857466519722	0	55.98956133619145	0.9772021920638565	-4.115037118763841	0	0	34.26705831663931	-9.798857466519722	0	55.98956133619145	0.9772021920638565	-4.115037118763841	0	0	-9.587375199415325	4.635319654109437	5.254351483955824	21.43494914333243	-18.18929061278702	-3.92947027816006	54.12928812886419	45.27879436450554	0	4.99051691200416	2.139441634421625	1.787549342945371	1.578734147491304	0.09328513292047529	45.27879436450554	0	4.99051691200416
6.18	10.49816197142458	-4.613971745240635	0.1875899131462173	0	0.9399999999999999	0	34.27419446838262	-9.799316112531919	0	55.99161693387653	0.9772380690115575	-4.115836813903648	0	0	34.27419446838262	-9.799316112531919	0	55.99161693387653	0.9772380690115575	-4.115836813903648	0	0	-9.573822226898336	4.680309955194214	5.436002016370057	22.60345790930528	-18.79043724112235	-3.536345149126543	56.42722461559673	45.2782916339556	0	4.990555261228975	2.146646695876428	1.817576757627615	1.742849996756783	0.09417073002572193	45.2782916339556	0	4.990555261228975
6.2	10.3839846661256	-4.588300422779728	0.1148480608637116	0	0.9399999999999999	0	34.27749993733452	-9.799527633791557	0	55.99257176287612	0.9772547339213941	-4.116206886883507	0	0	34.27749993733452	-9.799527633791557	0	55.99257176287612	0.9772547339213941	-4.116206886883507	0	0	-9.385822187565925	4.614876683163437	5.650937579758949	24.00601652281877	-19.51331825411333	-2.989652327551762	58.29689506580013	45.27805956257234	0	4.990572899827134	2.042708040444381	1.796359730853432	2.024789352209913	0.09433347168097279	45.27805956257234	0	4.990572899827134
6.22	10.39848894667555	-4.638510432822546	0.09389578671367882	0	0.9399999999999999	0	34.32220188175757	-9.801592416124103	0	56.00876161452454	0.9775373001380684	-4.120857024753922	0	0	34.32220188175757	-9.801592416124103	0	56.00876161452454	0.9775373001380684	-4.120857024753922	0	0	-9.42558522190429	4.723380921133774	5.933193220891152	25.45135088596311	-20.35267455862558	-2.464126942870855	60.66589948611598	45.27564060954207	0	4.990719377852755	2.0369878180945	1.886101839084711	2.406185564474929	0.09464536640145241	45.27564060954207	0	4.990719377852755
6.24	10.34752906731188	-4.666512641211953	0.06631861687496435	0	0.9399999999999999	0	34.33157700602358	-9.802190412312653	0	56.01146134763612	0.9775844193697905	-4.121906549268896	0	0	34.33157700602358	-9.802190412312653	0	56.01146134763612	0.9775844193697905	-4.121906549268896	0	0	-9.393322437477314	4.769638349370839	6.34976596907019	27.29708162703322	-21.25805085007253	-1.386689609323875	62.0595912146245	45.27498368737667	0	4.990768993022951	2.017755238154236	1.919933201821359	2.921060555398858	0.09543200637155612	45.27498368737667	0	4.990768993022951
6.26	10.23388999653634	-4.661263070021203	0.0645660930717163	0	0.9399999999999999	0	34.33829675356399	-9.802617873411235	0	56.0133982744887	0.9776182251207384	-4.122658462515385	0	0	34.33829675356399	-9.802617873411235	0	56.0133982744887	0.9776182251207384	-4.122658462515385	0	0	-9.207708414213187	4.730154300985491	6.800472629965567	28.55333589737415	-22.18858723835932	-0.9568291645509652	63.9969123418455	45.2745137706091	0	4.990804373855736	1.872934635880126	1.904028821798899	3.426778363259928	0.09534826666019237	45.2745137706091	0	4.990804373855736
